<?xml version="1.0" encoding="UTF-8" standalone="no"?>
<!DOCTYPE svg PUBLIC "-//W3C//DTD SVG 1.1//EN" "http://www.w3.org/Graphics/SVG/1.1/DTD/svg11.dtd">
<svg width="100%" height="100%" viewBox="0 0 60 60" version="1.1" xmlns="http://www.w3.org/2000/svg" xmlns:xlink="http://www.w3.org/1999/xlink" xml:space="preserve" xmlns:serif="http://www.serif.com/" style="fill-rule:evenodd;clip-rule:evenodd;stroke-linejoin:round;stroke-miterlimit:2;">
    <g transform="matrix(1,0,0,1,6.831,6.831)">
        <path d="M46.278,3.009C46.278,1.348 44.93,0 43.269,0L3.009,0C1.348,0 0,1.348 0,3.009L0,43.281C0,44.942 1.348,46.29 3.009,46.29L43.269,46.29C44.93,46.29 46.278,44.942 46.278,43.281L46.278,3.009Z" style="fill:none;stroke:rgb(239,239,239);stroke-width:3px;"/>
    </g>
    <g transform="matrix(1,0,0,1,20.491,13.691)">
        <path d="M0,0L0,13.601" style="fill:none;fill-rule:nonzero;stroke:rgb(239,239,239);stroke-width:3px;"/>
    </g>
    <g transform="matrix(1,0,0,1,13.691,20.492)">
        <path d="M13.601,0L0,0" style="fill:none;fill-rule:nonzero;stroke:rgb(239,239,239);stroke-width:3px;"/>
    </g>
    <g transform="matrix(1,0,0,1,34.092,20.492)">
        <path d="M13.601,0L0,0" style="fill:none;fill-rule:nonzero;stroke:rgb(239,239,239);stroke-width:3px;"/>
    </g>
    <g transform="matrix(1,0,0,1,13.691,38.185)">
        <path d="M13.601,0L0,0" style="fill:none;fill-rule:nonzero;stroke:rgb(239,239,239);stroke-width:3px;"/>
    </g>
    <g transform="matrix(1,0,0,1,13.691,43.601)">
        <path d="M13.601,0L0,0" style="fill:none;fill-rule:nonzero;stroke:rgb(239,239,239);stroke-width:3px;"/>
    </g>
    <g transform="matrix(1,0,0,1,36.078,36.078)">
        <path d="M9.629,0L0,9.629" style="fill:none;fill-rule:nonzero;stroke:rgb(239,239,239);stroke-width:3px;"/>
    </g>
    <g transform="matrix(1,0,0,1,36.078,36.078)">
        <path d="M0,0L9.629,9.629" style="fill:none;fill-rule:nonzero;stroke:rgb(239,239,239);stroke-width:3px;"/>
    </g>
</svg>
