<svg xmlns="http://www.w3.org/2000/svg" xmlns:xlink="http://www.w3.org/1999/xlink" width="10.898" height="11.104" viewBox="0 0 10.898 11.104"><defs><style>.a,.e{fill:none;}.b{fill:#ff2139;}.c{fill:#ff6c88;}.d{clip-path:url(#a);}.e{stroke:#000;stroke-linecap:round;stroke-linejoin:round;stroke-width:1.198px;}.f{fill:#ededed;}</style><clipPath id="a"><rect class="a" width="10.898" height="11.104"/></clipPath></defs><g transform="translate(5.449 5.552)"><g transform="translate(-5.449 -5.552)"><path class="b" d="M7.362,2.5,2.5,6.452l.455,3.928,4.5,2.036,3.09-1.509L12.2,6.524Z" transform="translate(-1.901 -1.901)"/><path class="c" d="M17.629,2.5,16,6.715l1.2,3.042,3.617,1.15,1.653-4.383Z" transform="translate(-12.168 -1.901)"/><g class="d"><path class="e" d="M7.362,2.5,2.5,6.452l.455,3.928,4.5,2.036,3.09-1.509L12.2,6.524Z" transform="translate(-1.901 -1.901)"/><path class="f" d="M11.3,14.168a.742.742,0,0,1,.335.072,2,2,0,0,1,.79,1.772h0a2.611,2.611,0,0,1,.287-1.221,1.269,1.269,0,0,1,.5-.551.742.742,0,0,1,.335-.1.79.79,0,0,1-.479-.192,1.772,1.772,0,0,1-.551-.982,2.874,2.874,0,0,1-.072-.671,2.946,2.946,0,0,1-.048.575c-.144.742-.575,1.269-1.078,1.269" transform="translate(-8.594 -9.354)"/></g></g></g></svg>