<svg xmlns="http://www.w3.org/2000/svg" xmlns:xlink="http://www.w3.org/1999/xlink" width="20.292" height="20.095" viewBox="0 0 20.292 20.095"><defs><style>.a,.e,.f{fill:none;}.b{fill:#ff2139;}.c{fill:#ff6c88;}.d{clip-path:url(#a);}.e,.f{stroke:#000;stroke-linecap:round;stroke-linejoin:round;}.e{stroke-width:1.691px;}.f{stroke-width:0.939px;}.g{fill:#ededed;}</style><clipPath id="a"><rect class="a" width="20.292" height="20.095"/></clipPath></defs><g transform="translate(10.146 10.047)"><g transform="translate(-10.146 -10.047)"><path class="b" d="M9.93,4.8,4.5,14.514l8.323,8.624L23.1,16.449,20.4,6.529Z" transform="translate(-3.654 -3.898)"/><path class="c" d="M33.4,4.8l3.871,9.169,9.3,2.48L43.865,6.529Z" transform="translate(-27.125 -3.898)"/><g class="d"><path class="e" d="M9.93,4.8,4.5,14.514l8.323,8.624L23.1,16.449,20.4,6.529Z" transform="translate(-3.654 -3.898)"/><line class="f" x2="6.106" y2="1.635" transform="translate(13.34 10.916)"/><line class="f" x1="5.562" y2="0.319" transform="translate(0.846 10.296)"/><path class="g" d="M72.7,3.626a1.522,1.522,0,0,1,.676.15,3.824,3.824,0,0,1,1.616,3.476h0a5.017,5.017,0,0,1,.564-2.4,2.518,2.518,0,0,1,1.033-1.071,1.522,1.522,0,0,1,.676-.169,1.616,1.616,0,0,1-1-.357,3.506,3.506,0,0,1-1.127-1.935A5.543,5.543,0,0,1,74.973,0a5.636,5.636,0,0,1-.113,1.146c-.3,1.447-1.165,2.5-2.161,2.5" transform="translate(-59.04 0)"/></g></g></g></svg>