<svg xmlns="http://www.w3.org/2000/svg" xmlns:xlink="http://www.w3.org/1999/xlink" width="21.698" height="23.234" viewBox="0 0 21.698 23.234"><defs><style>.a,.e{fill:none;}.b{fill:#ff2139;}.c{fill:#ff6c88;}.d{clip-path:url(#a);}.e{stroke:#000;stroke-linecap:round;stroke-linejoin:round;stroke-width:1.703px;}.f{fill:#ededed;}</style><clipPath id="a"><rect class="a" width="15.5" height="18.532"/></clipPath></defs><g transform="matrix(0.914, -0.407, 0.407, 0.914, 10.849, 11.617)"><g transform="translate(-7.75 -9.266)"><path class="b" d="M9.415,2.5,2.5,12.992l3.032,6.336h8.414L16.3,13.06Z" transform="translate(-1.648 -1.648)"/><path class="c" d="M22.8,2.5l2.01,11.651-1.329,5.178h3.849l2.351-6.268Z" transform="translate(-15.033 -1.648)"/><g class="d"><path class="e" d="M9.415,2.5,2.5,12.992l3.032,6.336h8.414L16.3,13.06Z" transform="translate(-1.648 -1.648)"/><path class="f" d="M19.7,21.333a1.942,1.942,0,0,1,.852.2c1.192.579,2.078,2.351,2.078,4.463h0a6.4,6.4,0,0,1,.715-3.066,3.236,3.236,0,0,1,1.329-1.363,1.942,1.942,0,0,1,.886-.2,2.078,2.078,0,0,1-1.26-.477A4.463,4.463,0,0,1,22.868,18.4a7.086,7.086,0,0,1-.2-1.7,7.188,7.188,0,0,1-.136,1.465c-.375,1.84-1.465,3.2-2.759,3.2" transform="translate(-12.989 -11.011)"/></g></g></g></svg>