<svg xmlns="http://www.w3.org/2000/svg" xmlns:xlink="http://www.w3.org/1999/xlink" width="15.103" height="15.949" viewBox="0 0 15.103 15.949"><defs><style>.a,.e{fill:none;}.b{fill:#ff2139;}.c{fill:#ff6c88;}.d{clip-path:url(#a);}.e{stroke:#000;stroke-linecap:round;stroke-linejoin:round;stroke-width:1.149px;}.f{fill:#ededed;}</style><clipPath id="a"><rect class="a" width="10.457" height="12.503"/></clipPath></defs><g transform="matrix(0.883, 0.469, -0.469, 0.883, 7.552, 7.974)"><g transform="translate(-5.229 -6.251)"><path class="b" d="M7.166,2.5,2.5,9.579l2.046,4.275h5.677l1.586-4.229Z" transform="translate(-1.925 -1.925)"/><path class="c" d="M22.8,2.5l1.356,7.86-.9,3.493h2.6l1.586-4.229Z" transform="translate(-17.56 -1.925)"/><g class="d"><path class="e" d="M7.166,2.5,2.5,9.579l2.046,4.275h5.677l1.586-4.229Z" transform="translate(-1.925 -1.925)"/><path class="f" d="M19.7,19.826a1.31,1.31,0,0,1,.575.138,3.323,3.323,0,0,1,1.4,3.011h0a4.321,4.321,0,0,1,.483-2.068,2.183,2.183,0,0,1,.9-.919,1.31,1.31,0,0,1,.6-.138,1.4,1.4,0,0,1-.85-.322,3.011,3.011,0,0,1-.965-1.678A4.781,4.781,0,0,1,21.7,16.7a4.849,4.849,0,0,1-.092.988c-.253,1.241-.988,2.16-1.862,2.16" transform="translate(-15.172 -12.862)"/></g></g></g></svg>