<svg xmlns="http://www.w3.org/2000/svg" xmlns:xlink="http://www.w3.org/1999/xlink" width="11.242" height="11.455" viewBox="0 0 11.242 11.455"><defs><style>.a,.e{fill:none;}.b{fill:#ff2139;}.c{fill:#ff6c88;}.d{clip-path:url(#a);}.e{stroke:#000;stroke-linecap:round;stroke-linejoin:round;stroke-width:1.235px;}.f{fill:#ededed;}</style><clipPath id="a"><rect class="a" width="11.242" height="11.455"/></clipPath></defs><g transform="translate(5.621 5.727)"><g transform="translate(-5.621 -5.727)"><path class="b" d="M7.516,2.5,2.5,6.577l.469,4.052,4.645,2.1L10.8,11.173l1.7-4.522Z" transform="translate(-1.882 -1.882)"/><path class="c" d="M17.68,2.5,16,6.849l1.235,3.138,3.731,1.186,1.7-4.522Z" transform="translate(-12.047 -1.882)"/><g class="d"><path class="e" d="M7.516,2.5,2.5,6.577l.469,4.052,4.645,2.1L10.8,11.173l1.7-4.522Z" transform="translate(-1.882 -1.882)"/><path class="f" d="M11.3,14.227a.766.766,0,0,1,.346.074,2.058,2.058,0,0,1,.815,1.828h0a2.693,2.693,0,0,1,.3-1.26,1.31,1.31,0,0,1,.519-.568.766.766,0,0,1,.346-.1.815.815,0,0,1-.494-.2,1.828,1.828,0,0,1-.568-1.013,2.965,2.965,0,0,1-.074-.692,3.039,3.039,0,0,1-.049.593c-.148.766-.593,1.31-1.112,1.31" transform="translate(-8.508 -9.261)"/></g></g></g></svg>